<svg width="22" height="22" viewBox="0 0 22 22" fill="none" xmlns="http://www.w3.org/2000/svg">
<path fill-rule="evenodd" clip-rule="evenodd" d="M10.75 1.5C15.8586 1.5 20 5.64136 20 10.75C20 15.8586 15.8586 20 10.75 20C5.64141 20 1.5 15.8586 1.5 10.75C1.5 10.3358 1.16421 10 0.75 10C0.335787 10 0 10.3358 0 10.75C0 16.687 4.81299 21.5 10.75 21.5C16.6871 21.5 21.5 16.687 21.5 10.75C21.5 4.81294 16.6871 0 10.75 0C7.95625 0 5.41099 1.06639 3.5 2.81269V1.25C3.5 0.835786 3.16421 0.5 2.75 0.5C2.33579 0.5 2 0.835786 2 1.25V4.75C2 5.16421 2.33579 5.5 2.75 5.5H6.25C6.66421 5.5 7 5.16421 7 4.75C7 4.33579 6.66421 4 6.25 4H4.42535C6.08013 2.44872 8.30397 1.5 10.75 1.5Z" fill="white"/>
</svg>
